# xmcd CD database file
#
# Track frame offsets:
#	150
#	16607
#	33925
#	50642
#	72215
#	86770
#	96202
#	108577
#	122750
#	138417
#	152972
#	171152
#
# Disc length: 2407 seconds
#
# Revision: 5
# Processed by: cddbd v1.5.2PL0 Copyright (c) Steve Scherf et al.
# Submitted via: CDex 1.70beta3
#
DISCID=9d09650c
DTITLE=山下達郎 - Big Wave
DYEAR=1984
DGENRE=JPop
TTITLE0=THE THEME FROM BIG WAVE
TTITLE1=JODY
TTITLE2=ONLY WITH YOU
TTITLE3=MAGIC WAYS
TTITLE4=YOUR EYES
TTITLE5=I LOVE YOU…Part II
TTITLE6=GIRLS ON THE BEACH
TTITLE7=PLEASE LET ME WONDER
TTITLE8=DARLIN'
TTITLE9=GUESS I'M DUMB
TTITLE10=THIS COULD BE THE NIGHT
TTITLE11=I LOVE YOU…Part I
EXTD=YEAR: 1984
EXTT0=
EXTT1=
EXTT2=
EXTT3=
EXTT4=
EXTT5=
EXTT6=
EXTT7=
EXTT8=
EXTT9=
EXTT10=
EXTT11=
PLAYORDER=
